<svg xmlns="http://www.w3.org/2000/svg" viewBox="0 0 1200 1200"><defs><style>.cls-1{fill:#010201;}.cls-2{fill:#fff;}</style></defs><g id="Graphic_Elements" data-name="Graphic Elements"><circle class="cls-1" cx="587.79" cy="561.7" r="67.5"/><path class="cls-2" d="M630.91,540a11.24,11.24,0,0,0-7.95-8c-7-1.88-35.17-1.88-35.17-1.88s-28.14,0-35.16,1.88a11.24,11.24,0,0,0-8,8c-1.89,7-1.89,21.66-1.89,21.66s0,14.64,1.89,21.66a11.27,11.27,0,0,0,8,8c7,1.88,35.16,1.88,35.16,1.88s28.15,0,35.17-1.88a11.27,11.27,0,0,0,7.95-8c1.88-7,1.88-21.66,1.88-21.66S632.79,547.06,630.91,540ZM578.79,575.2v-27l23.39,13.5Z"/></g></svg>